<?xml version="1.0" encoding="UTF-8"?>
<svg width="752pt" height="752pt" version="1.1" viewBox="0 0 752 752" xmlns="http://www.w3.org/2000/svg">
 <g>
  <path d="m297.43 372.75c-3.9219 0-7.1055-3.1758-7.1055-7.1055 0-24.418 19.863-44.285 44.285-44.285h121.89c3.9219 0 7.1055 3.1758 7.1055 7.1055 0 3.9258-3.1836 7.1055-7.1055 7.1055h-121.89c-16.586 0-30.078 13.492-30.078 30.078 0 3.9258-3.1797 7.1016-7.1016 7.1016z"/>
  <path d="m461.23 335.57c-1.9023 0-3.8047-0.76172-5.2031-2.2695l-29.996-32.254c-2.668-2.8711-2.5039-7.3672 0.36328-10.039 2.8711-2.6719 7.3594-2.5156 10.039 0.36328l29.996 32.254c2.668 2.8711 2.5039 7.3672-0.36328 10.039-1.3672 1.2812-3.1016 1.9062-4.8359 1.9062z"/>
  <path d="m431.23 367.82c-1.7344 0-3.4648-0.62891-4.8359-1.8984-2.8711-2.6719-3.0352-7.1719-0.36328-10.039l29.996-32.254c2.6797-2.875 7.1758-3.0312 10.039-0.36328 2.8711 2.6719 3.0352 7.1719 0.36328 10.039l-29.996 32.254c-1.3984 1.4961-3.3047 2.2617-5.2031 2.2617z"/>
  <path d="m424.05 440.43h-121.89c-3.9219 0-7.1055-3.1758-7.1055-7.1055 0-3.9258 3.1836-7.1055 7.1055-7.1055h121.89c16.586 0 30.082-13.492 30.082-30.078 0-3.9258 3.1836-7.1055 7.1055-7.1055s7.1055 3.1758 7.1055 7.1055c-0.003906 24.43-19.871 44.289-44.289 44.289z"/>
  <path d="m327.42 472.68c-1.9023 0-3.8047-0.76172-5.2031-2.2695l-29.992-32.25c-2.668-2.8711-2.5039-7.3672 0.36328-10.039 2.8633-2.6719 7.3633-2.5117 10.039 0.36328l29.992 32.25c2.668 2.8711 2.5039 7.3672-0.36328 10.039-1.3672 1.2773-3.1055 1.9062-4.8359 1.9062z"/>
  <path d="m297.43 440.43c-1.7344 0-3.4648-0.62891-4.8359-1.8984-2.8711-2.6719-3.0391-7.1641-0.36328-10.039l29.992-32.254c2.6797-2.8789 7.1758-3.0312 10.039-0.36328 2.8711 2.6719 3.0391 7.1641 0.36328 10.039l-29.992 32.254c-1.4023 1.5039-3.3008 2.2617-5.2031 2.2617z"/>
 </g>
</svg>
